# xmcd
#
# Track frame offsets:
#	150
#	9732
#	24298
#	42310
#	55034
#	68361
#	80582
#	95584
#	116475
#	138659
#	151274
#	172019
#	184302
#
# Disc length: 2559 seconds
#
# Revision: 1
# Processed by: cddbd v1.5.2PL0 Copyright (c) Steve Scherf et al.
# Submitted via: audiograbber 1.83.01
#
DISCID=a509fd0d
DTITLE=The Bluegrass Brothers - The Bluegrass Brothers
DYEAR=2010
DGENRE=Bluegrass
TTITLE0=So Long
TTITLE1=The Way It Used To Be
TTITLE2=Eyesore Of The County
TTITLE3=Fly Away Little Birdie
TTITLE4=If You're Going To Do Me Wrong, Do It Right
TTITLE5=Caroline
TTITLE6=You Walked Out The Door
TTITLE7=Little Jenny
TTITLE8=Will You Be The One
TTITLE9=Home Run Man
TTITLE10=Wall Around Your Heart
TTITLE11=You Can Find It At The Cross
TTITLE12=Sugar Hill
EXTD=
EXTT0=
EXTT1=
EXTT2=
EXTT3=
EXTT4=
EXTT5=
EXTT6=
EXTT7=
EXTT8=
EXTT9=
EXTT10=
EXTT11=
EXTT12=
PLAYORDER=
